<svg width="97" height="95" viewBox="0 0 97 95" fill="none" xmlns="http://www.w3.org/2000/svg">
<path d="M19.6251 37.0964L27.5144 30.397L38.7771 43.6602L31.5738 49.777C28.8297 52.1072 28.2517 53.9756 31.0674 57.2914L32.4266 58.8921L44.6608 48.5032L63.3025 70.456L35.4041 94.1466L15.5002 70.7074C5.49969 58.9306 7.61966 47.2911 19.6251 37.0964ZM53.2403 8.55124L61.1296 1.85187L72.3923 15.115L65.1891 21.2318C62.445 23.5621 61.8669 25.4304 64.6826 28.7462L66.0419 30.347L78.276 19.9581L96.9177 41.9109L69.0194 65.6014L49.1154 42.1622C39.1149 30.3855 41.2349 18.7459 53.2403 8.55124Z" fill="#666666"/>
</svg>
